<svg viewBox="0 0 20 20" fill="none" xmlns="http://www.w3.org/2000/svg">
  <path
    d="M4.16667 15.8332H15.8333C16.7538 15.8332 17.5 15.087 17.5 14.1665V5.83317C17.5 4.9127 16.7538 4.1665 15.8333 4.1665H4.16667C3.24619 4.1665 2.5 4.9127 2.5 5.83317V14.1665C2.5 15.087 3.24619 15.8332 4.16667 15.8332Z"
    fill="currentColor" fill-opacity="0.10" />
  <path
    d="M2.5 6.6665L9.0755 11.0502C9.63533 11.4234 10.3647 11.4234 10.9245 11.0502L17.5 6.6665M4.16667 15.8332H15.8333C16.7538 15.8332 17.5 15.087 17.5 14.1665V5.83317C17.5 4.9127 16.7538 4.1665 15.8333 4.1665H4.16667C3.24619 4.1665 2.5 4.9127 2.5 5.83317V14.1665C2.5 15.087 3.24619 15.8332 4.16667 15.8332Z"
    stroke="currentColor" stroke-linecap="round" stroke-linejoin="round" />
</svg>