<svg viewBox="0 0 20 20" fill="none" xmlns="http://www.w3.org/2000/svg">
  <path
    d="M10 18C14.4182 18 18 14.4182 18 10C18 5.58172 14.4182 2 10 2C5.58172 2 2 5.58172 2 10C2 14.4182 5.58172 18 10 18Z"
    fill="currentColor" fill-opacity="0.10" stroke="currentColor" stroke-linecap="round" stroke-linejoin="round" />
  <path
    d="M11.5555 15V13.7102C11.5722 13.496 11.5436 13.2805 11.4715 13.0783C11.3995 12.8761 11.2857 12.6916 11.1378 12.5373C12.5333 12.38 14 11.8452 14 9.39155C13.9999 8.76408 13.7612 8.1607 13.3333 7.70627C13.5359 7.15734 13.5216 6.55058 13.2933 6.01204C13.2933 6.01204 12.7689 5.85475 11.5555 6.67715C10.5369 6.39799 9.46316 6.39799 8.44447 6.67715C7.23114 5.85475 6.7067 6.01204 6.7067 6.01204C6.47842 6.55058 6.4641 7.15734 6.6667 7.70627C6.23565 8.16407 5.99671 8.7729 6.00003 9.40498C6.00003 11.8407 7.46669 12.3755 8.86223 12.5508C8.71603 12.7035 8.60325 12.8858 8.53127 13.0856C8.45929 13.2853 8.42972 13.4981 8.44447 13.7102V15"
    stroke="currentColor" stroke-linecap="round" stroke-linejoin="round" />
  <path d="M8 13.8919C6.71429 14.1812 5.64286 13.8919 5 13" stroke="currentColor" stroke-linecap="round"
    stroke-linejoin="round" />
</svg>