<svg width="68" height="59" viewBox="0 0 68 59" fill="none" xmlns="http://www.w3.org/2000/svg">
<path d="M53.0827 22.9543C57.9151 25.6282 64.0001 23.8783 66.674 19.0459C69.3479 14.2135 67.598 8.12841 62.7656 5.45455L53.0827 22.9543ZM62.7656 53.5571C67.598 50.8833 69.3479 44.7982 66.674 39.9658C64.0001 35.1334 57.9151 33.3835 53.0827 36.0574L62.7656 53.5571ZM49.4756 36.9815C45.347 36.9815 42 33.6345 42 29.5058H22C22 44.6802 34.3013 56.9815 49.4756 56.9815V36.9815ZM42 29.5058C42 25.3772 45.347 22.0302 49.4756 22.0302V2.03021C34.3013 2.03021 22 14.3315 22 29.5058H42ZM49.4756 22.0302C50.8036 22.0302 52.0228 22.3678 53.0827 22.9543L62.7656 5.45455C58.8175 3.27001 54.2763 2.03021 49.4756 2.03021V22.0302ZM53.0827 36.0574C52.0228 36.6438 50.8036 36.9815 49.4756 36.9815V56.9815C54.2763 56.9815 58.8175 55.7417 62.7656 53.5571L53.0827 36.0574Z" fill="black"/>
<path d="M53.0827 22.9543C57.9151 25.6282 64.0001 23.8783 66.674 19.0459C69.3479 14.2135 67.598 8.12841 62.7656 5.45455L53.0827 22.9543ZM62.7656 53.5571C67.598 50.8833 69.3479 44.7982 66.674 39.9658C64.0001 35.1334 57.9151 33.3835 53.0827 36.0574L62.7656 53.5571ZM49.4756 36.9815C45.347 36.9815 42 33.6345 42 29.5058H22C22 44.6802 34.3013 56.9815 49.4756 56.9815V36.9815ZM42 29.5058C42 25.3772 45.347 22.0302 49.4756 22.0302V2.03021C34.3013 2.03021 22 14.3315 22 29.5058H42ZM49.4756 22.0302C50.8036 22.0302 52.0228 22.3678 53.0827 22.9543L62.7656 5.45455C58.8175 3.27001 54.2763 2.03021 49.4756 2.03021V22.0302ZM53.0827 36.0574C52.0228 36.6438 50.8036 36.9815 49.4756 36.9815V56.9815C54.2763 56.9815 58.8175 55.7417 62.7656 53.5571L53.0827 36.0574Z" fill="url(#paint0_radial_108_4)"/>
<path d="M15 11L14.7882 11.3971C8.67059 22.8676 8.67059 36.6324 14.7882 48.1029L15 48.5" stroke="black" stroke-width="20" stroke-linecap="round"/>
<path d="M15 11L14.7882 11.3971C8.67059 22.8676 8.67059 36.6324 14.7882 48.1029L15 48.5" stroke="url(#paint1_radial_108_4)" stroke-width="20" stroke-linecap="round"/>
<defs>
<radialGradient id="paint0_radial_108_4" cx="0" cy="0" r="1" gradientUnits="userSpaceOnUse" gradientTransform="translate(44.9621 45.5834) rotate(-41.9495) scale(55.7707 207.245)">
<stop stop-color="#1A104B"/>
<stop offset="0.5" stop-color="#171661"/>
<stop offset="1" stop-color="#56719B"/>
</radialGradient>
<radialGradient id="paint1_radial_108_4" cx="0" cy="0" r="1" gradientUnits="userSpaceOnUse" gradientTransform="translate(10 47) rotate(-68.1986) scale(43.0813 111.036)">
<stop stop-color="#1A104B"/>
<stop offset="0.5" stop-color="#171661"/>
<stop offset="1" stop-color="#56719B"/>
</radialGradient>
</defs>
</svg>
