<svg viewBox="0 0 20 20" xmlns="http://www.w3.org/2000/svg"><g fill="none" fill-rule="evenodd"><path d="M-2-2h24v24H-2z"/><path d="M9.99 0C4.47 0 0 4.48 0 10s4.47 10 9.99 10C15.52 20 20 15.52 20 10S15.52 0 9.99 0Zm7.48 7.16-5.01-.43-2-4.71c3.21.19 5.91 2.27 7.01 5.14Zm-5.07 6.26L10 11.98l-2.39 1.44.63-2.72-2.11-1.83 2.78-.24L10 6.06l1.09 2.56 2.78.24-2.11 1.83.64 2.73ZM9.54 2.02l-2 4.72-5.02.43c1.1-2.88 3.8-4.97 7.02-5.15ZM2 10c0-.64.08-1.26.23-1.86l3.79 3.28-1.11 4.75A7.982 7.982 0 0 1 2 10Zm3.84 6.82L10 14.31l4.16 2.5A7.924 7.924 0 0 1 9.99 18c-1.52 0-2.94-.44-4.15-1.18Zm9.25-.65-1.11-4.75 3.79-3.28c.14.59.23 1.22.23 1.86 0 2.48-1.14 4.7-2.91 6.17Z" fill="currentColor"/></g></svg>