<svg viewBox="0 0 20 20" fill="none" xmlns="http://www.w3.org/2000/svg">
  <path
    d="M18.125 3.50832C17.3125 3.90644 16.5162 4.06813 15.6875 4.31269C14.7767 3.28488 13.4263 3.22801 12.1287 3.71388C10.8312 4.19976 9.98131 5.38763 10 6.75019V7.56269C7.36344 7.63013 5.01531 6.42926 3.5 4.31269C3.5 4.31269 0.102125 10.352 6.75 13.2502C5.229 14.2634 3.71206 14.9467 1.875 14.8752C4.56275 16.3401 7.49181 16.8439 10.0276 16.1078C12.9364 15.2628 15.3267 13.0828 16.2441 9.81738C16.5177 8.82424 16.6536 7.79821 16.6479 6.76807C16.6462 6.56576 17.8748 4.51582 18.125 3.50751V3.50832Z"
    fill="currentColor" fill-opacity="0.10" stroke="currentColor" stroke-linecap="round" stroke-linejoin="round" />
</svg>